# xmcd
#
# Track frame offsets:
#	150
#	14064
#	28922
#	44283
#	55895
#	69854
#
# Disc length: 1164 seconds
# Revision: 1
# Processed by: cddbd v1.4PL0 Copyright (c) Steve Scherf et al.
# Submitted via: cdrLabel 6.0
#
DISCID=4d048a06
DTITLE=Norah Jones - First Sessions
DYEAR=2001
DGENRE=Pop
TTITLE0=Dont Know Why
TTITLE1=Come Away with Me
TTITLE2=Something Is Calling You
TTITLE3=Turn Me On
TTITLE4=Lonestar
TTITLE5=Peace
EXTD=submitted by Tony , Caracas Venezuela
EXTT0=
EXTT1=
EXTT2=
EXTT3=
EXTT4=
EXTT5=
PLAYORDER=
